<svg xmlns="http://www.w3.org/2000/svg" viewBox="0 0 66.5 92.92"><defs><style>.a{fill:#996714;}.b{fill:#93d2e0;}.c{fill:#030405;}.d{fill:#90d1da;}.e{fill:#010101;}.f{fill:#f9f19a;}.g{fill:#ec6568;}.h{fill:#f29699;}.i{fill:#fbcb9a;}.j{fill:#cc9932;}.k{fill:#121315;}.l{fill:#99cdcd;}.m{fill:#040506;}.n{fill:#feeda1;}.o{fill:#90d1dc;}</style></defs><path class="a" d="M29.91,42.38A6.06,6.06,0,0,0,28.28,40a3.27,3.27,0,0,0-1.93-1.08,3,3,0,0,0-2.21.91l-.48-.92c-1.06-2.06-2.36-4.6-1.9-5,.21-.2.68.44,1.75.47s1.18-.48,1.89-.38,1.14.74,2.08,2a8.7,8.7,0,0,0,1.85,2.23c.24.18.44.3.57.38Z" transform="translate(-16.7 -3.54)"/><path class="b" d="M41.82,46.09a1.55,1.55,0,0,1-1.3-1.65,1.85,1.85,0,0,1,2.5-1,1.46,1.46,0,0,1,.77,1.78A1.73,1.73,0,0,1,41.82,46.09Z" transform="translate(-16.7 -3.54)"/><path class="c" d="M42.09,45.25a.86.86,0,0,1-.67-.94.92.92,0,0,1,1.29-.59.85.85,0,0,1,.4,1A.87.87,0,0,1,42.09,45.25Z" transform="translate(-16.7 -3.54)"/><path class="c" d="M40.41,44.73a2,2,0,0,0,2.23,1.73,1.92,1.92,0,0,0,1.53-2.14c-.28-1.2-2.47-1.74-3.35-.92A1.66,1.66,0,0,0,40.41,44.73Zm1.7-1.48a1.5,1.5,0,0,1,1.67,1.25A1.47,1.47,0,0,1,42.51,46a1.55,1.55,0,0,1-1.7-1.6A1.44,1.44,0,0,1,42.11,43.25Z" transform="translate(-16.7 -3.54)"/><path class="d" d="M42.05,46.75a2.75,2.75,0,0,1-2.06-2c-.08-.35-.14-.6,0-.83.62-1,4.66-.4,5,1a.9.9,0,0,1,0,.44C44.79,46.29,43.32,47,42.05,46.75Z" transform="translate(-16.7 -3.54)"/><path class="c" d="M42.4,45.33a1.1,1.1,0,0,1-1-1.08,1,1,0,0,1,.93-.76c.66-.06,1.37.53,1.29,1.09A1.1,1.1,0,0,1,42.4,45.33Z" transform="translate(-16.7 -3.54)"/><path class="e" d="M39.51,43.81c-.09.19,0,.47.18,1a3.39,3.39,0,0,0,.89,1.54,3,3,0,0,0,2,.72c1.5-.07,2.86-1.43,2.69-2.27C45,43.36,40,42.8,39.51,43.81Zm5.3,1c.15.72-1,2-2.35,1.94-1.68-.07-2.56-2.11-2.17-2.78C40.84,43.08,44.55,43.7,44.81,44.86Z" transform="translate(-16.7 -3.54)"/><path class="b" d="M62.16,46.17a1.56,1.56,0,0,1-1.3-1.66,1.85,1.85,0,0,1,2.5-1,1.45,1.45,0,0,1,.76,1.79A1.72,1.72,0,0,1,62.16,46.17Z" transform="translate(-16.7 -3.54)"/><path class="c" d="M60.67,44.79a2,2,0,0,0,2.22,1.73,1.9,1.9,0,0,0,1.54-2.13c-.28-1.2-2.47-1.75-3.35-.92A1.65,1.65,0,0,0,60.67,44.79Zm1.7-1.48A1.5,1.5,0,0,1,64,44.56a1.49,1.49,0,0,1-1.27,1.54,1.56,1.56,0,0,1-1.7-1.61A1.46,1.46,0,0,1,62.37,43.31Z" transform="translate(-16.7 -3.54)"/><path class="c" d="M62.17,45.31a.88.88,0,0,1-.67-.94.93.93,0,0,1,1.29-.6.87.87,0,0,1,.4,1A.88.88,0,0,1,62.17,45.31Z" transform="translate(-16.7 -3.54)"/><path class="f" d="M55.25,68.25c.45-3.4-2.43-4.4-2.38-10.09,0-1.09.11-.86.2-2.63a37.7,37.7,0,0,0-.64-9.63c-1-4.49-1.66-7.88-4.58-9.94a9.81,9.81,0,0,0-5.75-1.63,14.64,14.64,0,0,1,5,4.6c4.73,7.16,2.32,18.51-1.5,19.53-4.91,1.31-15.29-13.64-11.94-19.83,1.84-3.41,8.18-4.79,7.8-6.1-.11-.39-.75-.55-1.11-.61L30.06,34.54a105.25,105.25,0,0,0,1.07,22C32.92,68,35.57,72.3,37,74.32a28.57,28.57,0,0,0,8,7.4c3.41,2.13,6.48,3,6.72,2.62s-3.12-2-3.16-4.56a4.42,4.42,0,0,1,1.46-3C51.72,74.91,54.83,71.45,55.25,68.25Z" transform="translate(-16.7 -3.54)"/><path class="g" d="M47.56,69.2s-.13-.14.78-.84A6.24,6.24,0,0,1,50,67.28a4.72,4.72,0,0,1,1.32-.35,4.5,4.5,0,0,1,1.45.07c.77.17.86.48,1.29.46s.36-.24,1-.44a3.24,3.24,0,0,1,.89-.15,3.58,3.58,0,0,1,1.43.33,9.35,9.35,0,0,1,2.61,1.4l.24.25c.47.47.63.58.54.67s-.25.12-.63.13a9,9,0,0,1-2.93-.47,3.54,3.54,0,0,0-1.36-.34c-.42,0-.4.19-.93.3a6.72,6.72,0,0,1-2.16-.1c-.55-.07-.45-.08-.71-.11a11.73,11.73,0,0,0-2.59.23A4.73,4.73,0,0,1,47.56,69.2Z" transform="translate(-16.7 -3.54)"/><path class="h" d="M45.86,69.18c-.26.45.37,1.1.72,1.46a4.55,4.55,0,0,0,1.36.92,7.09,7.09,0,0,0,1.78.55,16.48,16.48,0,0,0,3.55.16A20.84,20.84,0,0,0,57.49,72,5.37,5.37,0,0,0,60,70.87c.37-.33.79-.71.77-1.18,0-1.06-2.38-2.23-4.19-1.92-1.55.26-1.71,1.43-3.2,1.51-1,.06-1.2-.68-2.73-.84a12.2,12.2,0,0,0-2.33.17C46.14,68.86,45.94,69,45.86,69.18Z" transform="translate(-16.7 -3.54)"/><path class="i" d="M58.36,45.42a.74.74,0,0,0-.45.61c0,.3.26.49,1.23,1.17,1.41,1,1.75,1.15,2.11,1,.19-.06.46-.22.49-.45s-.45-.57-1.6-1.38S58.74,45.29,58.36,45.42Z" transform="translate(-16.7 -3.54)"/><path class="j" d="M34.39,34.74l-1.21,1,2.11.43c1.18.21,3,.64,3.93.93s3,.75,4.48,1,3,.64,3.4.79.25-.22-.72-1.33c-.78-.86-1.68-1.93-2-2.32-.42-.61-1.1-.83-3.57-1.11C36,33.59,35.75,33.63,34.39,34.74Z" transform="translate(-16.7 -3.54)"/><path class="j" d="M63,35.28a11.45,11.45,0,0,1-.9,2.29l-.86,1.86,1-.5a27.58,27.58,0,0,1,6.87-1.65,31.29,31.29,0,0,0,3.58-.79l1.22-.39-1.76-.82C69.61,34.13,63,34.13,63,35.28Z" transform="translate(-16.7 -3.54)"/><path class="j" d="M44.49,34.45A23.86,23.86,0,0,0,47.35,38a7.8,7.8,0,0,0,2,1.83c.21,0-.32-1.08-1.15-2.44-1.18-1.82-1.82-2.47-2.61-2.61C45.06,34.6,44.56,34.49,44.49,34.45Z" transform="translate(-16.7 -3.54)"/><path class="j" d="M62.1,35.13c-.33,0-1,1-1.58,2.36-1.25,2.76-1.25,2.69-.54,2.4.54-.18,1.62-2,2.33-3.86C62.6,35.31,62.53,35.13,62.1,35.13Z" transform="translate(-16.7 -3.54)"/><path class="j" d="M48.28,36.64c.57.85,1.32,2.07,1.65,2.72s.71,1.11.82,1c.36-.36-1.4-4.15-2.18-4.69C47.31,34.77,47.21,35.06,48.28,36.64Z" transform="translate(-16.7 -3.54)"/><path class="j" d="M50.68,38.57c.5,1.14.89,1.79.89,1.43a7.81,7.81,0,0,0-.75-2.25C49.75,35.49,49.64,36,50.68,38.57Z" transform="translate(-16.7 -3.54)"/><path class="e" d="M50,60.36c-.86.65-.47,1.11.5.61a1.28,1.28,0,0,1,1.47.18c1.11.79,1.5.25.43-.61S50.89,59.68,50,60.36Z" transform="translate(-16.7 -3.54)"/><path class="e" d="M55.83,67.93a.73.73,0,0,0-.58.32c-.36.58-1.61.68-2.54.18C52,68,51.39,68,50,68.32a11.51,11.51,0,0,1-3.33.18c-.86-.14-1.65-.1-1.76.07-.32.54,3,.76,5.09.36,1.39-.28,2-.28,2.32,0,.65.64,2.58.46,3.29-.32C55.93,68.25,56,67.93,55.83,67.93Z" transform="translate(-16.7 -3.54)"/><path class="g" d="M57.24,60.51A2.11,2.11,0,0,0,59,59.9a2,2,0,0,0,.23-2.22,2.12,2.12,0,0,0-2.07-1.11,3.48,3.48,0,0,0-3-3,3.53,3.53,0,0,0-3.69,3.14A3,3,0,0,0,48,57.87a1.7,1.7,0,0,0-.26.82,2.16,2.16,0,0,0,1.71,2,2.25,2.25,0,0,0,1.74-.41,7.25,7.25,0,0,0,2,.84,4.81,4.81,0,0,0,2.75.08A4.14,4.14,0,0,0,57.24,60.51Z" transform="translate(-16.7 -3.54)"/><path class="e" d="M51.2,59.68c-.7,0-1.76.76-1.58,1.13.15.22.48.22.88,0A1.3,1.3,0,0,1,52,61c1.14.81,1.54.26.44-.62A3.64,3.64,0,0,0,51.2,59.68Z" transform="translate(-16.7 -3.54)"/><path class="i" d="M30.66,48.56c.44-.13.39-2.86-.65-5.22-.32-.7-1.83-4.12-3.91-4-1.74.12-2.87,2.66-3.2,4.24-.45,2.18.36,4,1.18,5.73,1,2.11,3.06,5.51,4.36,5.15.66-.18,1-1.28.92-2.15-.15-1-1.3-.89-1.83-2s.31-1.68-.19-3.13c-.35-1-.82-.94-1.18-2-.46-1.29-.24-2.95.33-3.12s2,1.31,2.47,2.93A8.17,8.17,0,0,0,30,47.91C30.25,48.26,30.49,48.61,30.66,48.56Z" transform="translate(-16.7 -3.54)"/><path class="e" d="M25.71,43.13c0,.21.23.31.5.17.82-.3,1.63.14,1.15.68-.64.78-.2,2,.95,2.5s1.39.88.44,1.12c-.78.2-.95,1.52-.27,2.2s1,.44.41-.44-.34-1.69.4-1.39c1.22.48-.13-4.06-1.45-4.84C27,42.66,25.71,42.66,25.71,43.13Zm2.3,1c.37,0,1.18,1.73.95,2-.41.4-1.22-.34-1.22-1.12C27.74,44.49,27.87,44.11,28,44.11Z" transform="translate(-16.7 -3.54)"/><path class="i" d="M32.14,64.58a15.26,15.26,0,0,0,4,8.35c1.11,1.13,3.25,2.89,4,2.37.32-.22.55-1-1.2-5.46-.41-1-4.78-12.13-6.5-11.6C31.32,58.57,31.88,63,32.14,64.58Z" transform="translate(-16.7 -3.54)"/><path class="i" d="M45.66,46.66c.56-.75.15-1.71.63-1.87.1,0,.25,0,1.08.54a5.55,5.55,0,0,1,1.35,1.08,2.31,2.31,0,0,1-.06,2.39,2.45,2.45,0,0,1-.86.71c-1.66,1-4.33,2-4.89,1.22a.72.72,0,0,1-.1-.55,2.12,2.12,0,0,1-1.16.18.86.86,0,0,1-.58-.21c-.18-.18-.19-.41-.21-.8a1.26,1.26,0,0,1,.15-1,.87.87,0,0,1,.55-.27C43.33,47.81,45,47.51,45.66,46.66Z" transform="translate(-16.7 -3.54)"/><path class="k" d="M37.09,45.55c-.12,0-.22-.07-.36-.16a.93.93,0,0,1-.51-.84.89.89,0,0,1,.33-.61,2.39,2.39,0,0,1,.62-.36A8.13,8.13,0,0,1,40,42.92a14.86,14.86,0,0,1,3.32.29,8.29,8.29,0,0,1,2.14.59c1.12.52,2,1.51,3.2,1.86a2.42,2.42,0,0,1-1.57.09,11.31,11.31,0,0,1-1.61-1.07l-.26-.17a9,9,0,0,0-6.1-.46c-1.23.27-1.45.7-1.52.82S37.34,45.51,37.09,45.55Z" transform="translate(-16.7 -3.54)"/><path class="b" d="M62,46.68c-1.16-.27-1.91-1.55-1.64-2.26.44-1.21,4-1.31,4.46-.31.21.43-.15,1-.34,1.32C64.42,45.53,63.45,47,62,46.68Z" transform="translate(-16.7 -3.54)"/><path class="c" d="M62.24,45.39a1.08,1.08,0,0,1-.83-1.17,1.14,1.14,0,0,1,1.6-.73,1,1,0,0,1,.48,1.25A1.07,1.07,0,0,1,62.24,45.39Z" transform="translate(-16.7 -3.54)"/><path class="e" d="M60.05,44.79c-.15.74,1.05,1.94,2.38,2a2.67,2.67,0,0,0,1.78-.64A3,3,0,0,0,65,44.8c.16-.49.24-.73.16-.9C64.73,43,60.32,43.5,60.05,44.79Zm4.41-.71c.35.59-.43,2.4-1.92,2.46-1.2.05-2.21-1.07-2.07-1.72C60.69,43.8,64,43.25,64.46,44.08Z" transform="translate(-16.7 -3.54)"/><path class="e" d="M58.53,45.52a.71.71,0,0,1-.27-.56c0-.43.41-.73.61-.88a8,8,0,0,1,5.84-.89,12.73,12.73,0,0,1,2.14.58c.73.25,2.23.76,2.17,1.08,0,.15-.42.26-.73.22a1.1,1.1,0,0,1-.55-.23,14.34,14.34,0,0,0-2.1-.82c-.48-.17-3.26-1.05-5.29.35a4.05,4.05,0,0,0-1.2,1.28A.75.75,0,0,1,58.53,45.52Z" transform="translate(-16.7 -3.54)"/><path class="l" d="M38.32,77.22c.73,4.7.75,6.43,1.39,9.63.14.7.38,1.8.74,3.15a31.53,31.53,0,0,0,10.38,1.62c.68-.39,1.67-1,2.83-1.74A27.25,27.25,0,0,0,56.3,88a13.1,13.1,0,0,0,3.09-3.82l-.27-1.41a21.88,21.88,0,0,1-2.46.77c-2,.49-4.81,1.19-7.57.13a17.24,17.24,0,0,1-2-1.13A69.81,69.81,0,0,1,40.25,78h0l-2.19-2.3C38.12,76,38.21,76.54,38.32,77.22Z" transform="translate(-16.7 -3.54)"/><path class="m" d="M55.85,56.22s.28.17.42.09.13-.27.13-.32c0-.56.21-2.78.63-7.22,0-.31.06-.6.09-.86,0,0,.12-.89.28-1.7A26.09,26.09,0,0,1,60.11,40a.77.77,0,0,0,.16-.42c0-.2-.08-.46-.19-.5-.36-.14-1.54,1.75-2.34,3.55a17.9,17.9,0,0,0-1.41,4.88c-.09.7,0,.66-.14,1.81C55.9,52.75,55.22,55.81,55.85,56.22Z" transform="translate(-16.7 -3.54)"/><path class="e" d="M71.59,38.21c.15.43.29.47.51.11a1,1,0,0,0,.1-.75C71.88,37.07,71.38,37.64,71.59,38.21Z" transform="translate(-16.7 -3.54)"/><path class="e" d="M52,45c-.19.07-.08.85,0,1.65.46,3.17.5,2.94.53,3.53.09,1.64-.23,3,.09,3.06.07,0,.15,0,.18-.06.64-.47-.1-5.49-.5-7.91C52.19,45.08,52,44.92,52,45Z" transform="translate(-16.7 -3.54)"/><path class="e" d="M46,47.25a3.86,3.86,0,0,1-1.86.36c-.93-.11-1.29.32-.65.72.32.21,3.62-.79,4.12-1.26S47,46.68,46,47.25Z" transform="translate(-16.7 -3.54)"/><path class="e" d="M30.36,54.12a.88.88,0,0,0,.21.82c.25.25.25.68.07,1.22-.32.82-.07,3.36.32,3.36s.15-3.9-.17-5C30.64,54,30.46,53.83,30.36,54.12Z" transform="translate(-16.7 -3.54)"/><path class="e" d="M55.62,67.76a.73.73,0,0,0-.57.32c-.36.57-1.61.68-2.54.18-.75-.4-1.33-.4-2.76-.11a11.85,11.85,0,0,1-3.33.18c-.86-.14-1.64-.11-1.75.07-.32.54,3,.75,5.08.36,1.4-.29,2-.29,2.33,0,.64.65,2.58.47,3.29-.32C55.73,68.08,55.84,67.76,55.62,67.76Z" transform="translate(-16.7 -3.54)"/><path class="e" d="M49.68,69.87c-.14.18.11.25.5.14s.72-.25.72-.32C50.9,69.4,49.86,69.55,49.68,69.87Z" transform="translate(-16.7 -3.54)"/><path class="e" d="M51.47,70.44c.14.29.36.43.54.32a.39.39,0,0,0,.14-.53C51.79,69.69,51.26,69.87,51.47,70.44Z" transform="translate(-16.7 -3.54)"/><path class="e" d="M35.78,72.21c-.32,0,1,1.54,1.79,2,.54.4.39.15-.4-.71A8.86,8.86,0,0,0,35.78,72.21Z" transform="translate(-16.7 -3.54)"/><path class="n" d="M82.67,5A17.45,17.45,0,0,1,83,8.72v2.63l-.06-.07s0,.06,0,.1a2,2,0,0,1,0,.24,4.11,4.11,0,0,1,0,1.56c0,.25,0,.46,0,.65s.1.38.13.58c.09-.59.14-2.81.14-5.34,0-3.43-.08-5-.22-4.76s-.2.36-.13-.17l.09-.6-18.16,0c-11.91,0-14.47.09-7.48.11L68,3.76l-.22.31a3.73,3.73,0,0,1,.47,0l.17-.27H75.5c3.91,0,7,.07,7,.13A2.5,2.5,0,0,0,82.67,5Z" transform="translate(-16.7 -3.54)"/><path class="n" d="M83,16.77c0,.12-.09.24-.13.36h0l.06,2.4h0a.85.85,0,0,1,0,.5l0,2,.14,4.87,0-4.87,0-4.89Z" transform="translate(-16.7 -3.54)"/><path class="o" d="M35.9,3.58c-5.45,0-8.34.09-6.46.11,8.74.16,16.37.16,16.37,0S41.36,3.56,35.9,3.58Z" transform="translate(-16.7 -3.54)"/><path class="o" d="M22.25,3.63c-1.6,0-2.26,0-1.51.06a27.66,27.66,0,0,0,2.88,0C24.44,3.65,23.82,3.63,22.25,3.63Z" transform="translate(-16.7 -3.54)"/><path class="o" d="M19.37,3.63l-1.28,0-1.29,0,.05,3.56A21.65,21.65,0,0,0,17,10.53a21.63,21.63,0,0,0,.09-3.43l0-3.32,1.17-.09Z" transform="translate(-16.7 -3.54)"/><path class="n" d="M17.11,10.77c-.22.09-.28.91-.24,3.81l0,3.67L17,14.64a15.13,15.13,0,0,1,.27-3.49c.08.07.17,0,.17-.18S17.29,10.71,17.11,10.77Z" transform="translate(-16.7 -3.54)"/><path class="n" d="M17,18.56a48.75,48.75,0,0,0-.11,5.35l.07,5.18.11-5.35A34.1,34.1,0,0,0,17,18.56Z" transform="translate(-16.7 -3.54)"/><path class="o" d="M83.13,41l0-14.14L83,38.71c0,3.5-.07,6.31-.12,8.22a18.4,18.4,0,0,1,.09,2.87c0,.48-.11,1-.17,1.48a8.12,8.12,0,0,1,.16,1.77C83.13,57.72,83.17,54.16,83.13,41Z" transform="translate(-16.7 -3.54)"/><path class="o" d="M58.3,95.94H58l.23.29H51l-.13-.09-.47,0,.07,0c.64.35,7.9.4,8.1.07.06-.14,0-.23-.07-.23A.33.33,0,0,1,58.3,95.94Z" transform="translate(-16.7 -3.54)"/><path class="n" d="M17,80.61A5.63,5.63,0,0,1,17,80c0-.11,0-.22,0-.33-.06-.46-.07-1.3-.07-2.88V74.33s0-.07,0-.11a1,1,0,0,1,0-.35v0a5.14,5.14,0,0,0,0-.68h0L17,69.78c0-1.24.08-2.26.14-2.75S17,66.15,17,65.72c0-.07,0-.14,0-.21s0-.21,0-.31v-.51c0-.31-.05-.63-.05-.95a.75.75,0,0,1,.06-.29V61.84l0-2.33.11.22a2.8,2.8,0,0,1,0-.4s-.06,0-.09,0c-.27.08-.31,1.74-.31,10.55,0,5.73.09,10.51.17,10.64A.32.32,0,0,0,17,80.61Z" transform="translate(-16.7 -3.54)"/><path class="o" d="M83.08,90.78c0,.21,0,.42,0,.63a1.08,1.08,0,0,1-.14.48v1.45A6.41,6.41,0,0,1,82.71,96a5.88,5.88,0,0,1-2.5.27c-1.9,0-2.3-.07-2.61-.4l0,0-.58,0,.51.39-3.19,0a9.37,9.37,0,0,1-2.52-.13,3.49,3.49,0,0,0,1-.21,6.62,6.62,0,0,1-.88-.06L70.54,96c-1.26.16-2.59.31-2.94.35s3,.09,7.45.11l8.15,0V93.51A14.45,14.45,0,0,0,83.08,90.78Z" transform="translate(-16.7 -3.54)"/><path class="o" d="M83.15,74.13C83.13,65.55,83,59,83,59.62l-.1.76c0,.73,0,1.45,0,2.18s0,1.38,0,2.55c0,2,0,3.69,0,3.69h0a1.55,1.55,0,0,1,0,.22l.11,0,0,3.87c0,3.37-.06,3.81-.33,3.61,0,.25,0,.49,0,.74a.67.67,0,0,1,.3.65c0,.42,0,.57-.21.54,0,.36,0,.72.08,1.08.1.18.13.34,0,.46s0,.24,0,.36l.06,0V85l0,4.29c0,.22,0,.43.07.65h0C83.13,89.82,83.17,82.72,83.15,74.13Z" transform="translate(-16.7 -3.54)"/><path class="a" d="M77,21.85c-2.13-3.61-3.19-5.41-4.67-6.81a24.36,24.36,0,0,0-7.1-4.48A30.32,30.32,0,0,0,60.93,9c-5.07-1.42-13.54-2.31-15,.76a2.65,2.65,0,0,0-.11,1.84c-.36-.06-3.59-.6-5.6,1.53a6.13,6.13,0,0,0-1.45,4.13c-.17,3.75,2.23,6.5,3.1,7.49,1,1.14,4,4.57,7.95,4.13a6.77,6.77,0,0,0,2.85-1c.25.1.63.26,1.08.48.81.39,1.08.61,1.51.77a10.22,10.22,0,0,0,2.12.46C59,29.75,60.94,29,61.33,28c.14-.42.42-.32,1.44.46s2,1.38,3,2.14c2.36,1.85,5.88,3.9,7.25,3.52a1.09,1.09,0,0,1,.86,0c.15.12.22.37.27.81a1.78,1.78,0,0,1,0,.56,2.54,2.54,0,0,1,0,1.37,2.06,2.06,0,0,0,.84,1.38c.82.48,1.87-.08,2.54-.44a6.46,6.46,0,0,0,3-3.59,6.67,6.67,0,0,0,.16-3.15A25.32,25.32,0,0,0,77,21.85Z" transform="translate(-16.7 -3.54)"/><path class="j" d="M38.4,12.57c-.73-.71-2.14-.34-4.14.22a23.58,23.58,0,0,0-6.76,3.08c-3.43,2.34-5.45,3.72-5.81,6-.2,1.22.1,2.51-.66,4.52a7.79,7.79,0,0,1-.91,1.86c-.88,1.28-1.61,1.41-1.76,2.28a2,2,0,0,0,.82,2c.79.42,1.51-.4,2.61.06.57.24.53.52,1.1.76,1,.41,1.62-.17,2.44-.17,2.42,0,3.74,5,5.32,4.73a1.46,1.46,0,0,0,.87-.71c1.84-2.6,2.95-2.93,4.27-4.31a13.5,13.5,0,0,0,1.5-2c1.62-2.38,2.43-3.57,2.69-4.5.84-3-1.91-3.92-2-8.23C37.94,15.11,39.36,13.5,38.4,12.57Z" transform="translate(-16.7 -3.54)"/><path class="j" d="M60.58,35.09c-.43,0-2.45,4.85-2.39,5.61s2.56-4.36,2.61-5.23C60.86,35.25,60.75,35.09,60.58,35.09Z" transform="translate(-16.7 -3.54)"/><path class="o" d="M17.29,94.75A16.53,16.53,0,0,1,17,91.08V88.45l.06.07s0-.07,0-.1a2,2,0,0,1,0-.24A3.84,3.84,0,0,1,17,86.61c0-.24,0-.46,0-.65s-.1-.38-.13-.57c-.09.58-.14,2.81-.14,5.34,0,3.43.09,5,.22,4.75s.2-.35.13.18l-.09.6,18.17-.05c11.9,0,14.46-.08,7.47-.11L32,96l.22-.31-.47,0-.17.27H24.45c-3.91,0-7-.07-7-.14A2.88,2.88,0,0,0,17.29,94.75Z" transform="translate(-16.7 -3.54)"/><path class="n" d="M16.94,44.8l0,14.14.11-11.84c0-3.49.08-6.3.13-8.21A17.25,17.25,0,0,1,17.13,36c0-.49.1-1,.17-1.48a7.57,7.57,0,0,1-.16-1.77C16.94,28.1,16.89,31.66,16.94,44.8Z" transform="translate(-16.7 -3.54)"/></svg>