<svg xmlns="http://www.w3.org/2000/svg" viewBox="0 0 66.55 92.94"><defs><style>.a{fill:#f8ab1c;}.b{fill:#e097c1;}.c{fill:#ee7354;}.d{fill:#010101;}.e{fill:#99cdcd;}.f{fill:#a66333;}.g{fill:none;}</style></defs><path class="a" d="M29.91,42.38A6.06,6.06,0,0,0,28.28,40a3.27,3.27,0,0,0-1.93-1.08,3,3,0,0,0-2.21.91l-.48-.92c-1.06-2.06-2.36-4.6-1.9-5,.21-.2.68.44,1.75.47s1.18-.48,1.89-.38,1.14.74,2.08,2a8.7,8.7,0,0,0,1.85,2.23c.24.18.44.3.57.38Z" transform="translate(-16.71 -3.54)"/><path class="b" d="M55.25,68.25c.45-3.4-2.43-4.4-2.38-10.09,0-1.09.11-.86.2-2.63a37.7,37.7,0,0,0-.64-9.63c-1-4.49-1.66-7.88-4.58-9.94a9.81,9.81,0,0,0-5.75-1.63,14.64,14.64,0,0,1,5,4.6c4.73,7.16,2.32,18.51-1.5,19.53-4.91,1.31-15.29-13.64-11.94-19.83,1.84-3.41,8.18-4.79,7.8-6.1-.11-.39-.75-.55-1.11-.61L30.06,34.54a105.25,105.25,0,0,0,1.07,22C32.92,68,35.57,72.3,37,74.32a28.57,28.57,0,0,0,8,7.4c3.41,2.13,6.48,3,6.72,2.62s-3.12-2-3.16-4.56a4.42,4.42,0,0,1,1.46-3C51.72,74.91,54.83,71.45,55.25,68.25Z" transform="translate(-16.71 -3.54)"/><path class="c" d="M30.66,48.56c.44-.13.39-2.86-.65-5.22-.32-.7-1.83-4.12-3.91-4-1.74.12-2.87,2.66-3.2,4.24-.45,2.18.36,4,1.18,5.73,1,2.11,3.06,5.51,4.36,5.15.66-.18,1-1.28.92-2.15-.15-1-1.3-.89-1.83-2s.31-1.68-.19-3.13c-.35-1-.82-.94-1.18-2-.46-1.29-.24-2.95.33-3.12s2,1.31,2.47,2.93A8.17,8.17,0,0,0,30,47.91C30.25,48.26,30.49,48.61,30.66,48.56Z" transform="translate(-16.71 -3.54)"/><path class="d" d="M25.71,43.13c0,.21.23.31.5.17.82-.3,1.63.14,1.15.68-.64.78-.2,2,.95,2.5s1.39.88.44,1.12c-.78.2-.95,1.52-.27,2.2s1,.44.41-.44-.34-1.69.4-1.39c1.22.48-.13-4.06-1.45-4.84C27,42.66,25.71,42.66,25.71,43.13Zm2.3,1c.37,0,1.18,1.73.95,2-.41.4-1.22-.34-1.22-1.12C27.74,44.49,27.87,44.11,28,44.11Z" transform="translate(-16.71 -3.54)"/><path class="c" d="M32.14,64.58a15.26,15.26,0,0,0,4,8.35c1.11,1.13,3.25,2.89,4,2.37.32-.22.55-1-1.2-5.46-.41-1-4.78-12.13-6.5-11.6C31.32,58.57,31.88,63,32.14,64.58Z" transform="translate(-16.71 -3.54)"/><path class="e" d="M38.32,77.22c.73,4.7.75,6.43,1.39,9.63.14.7.38,1.8.74,3.15a31.53,31.53,0,0,0,10.38,1.62c.68-.39,1.67-1,2.83-1.74A27.25,27.25,0,0,0,56.3,88a13.1,13.1,0,0,0,3.09-3.82l-.27-1.41a21.88,21.88,0,0,1-2.46.77c-2,.49-4.81,1.19-7.57.13a17.24,17.24,0,0,1-2-1.13A69.81,69.81,0,0,1,40.25,78h0l-2.19-2.3C38.12,76,38.21,76.54,38.32,77.22Z" transform="translate(-16.71 -3.54)"/><path class="d" d="M30.36,54.12a.88.88,0,0,0,.21.82c.25.25.25.68.07,1.22-.32.82-.07,3.36.32,3.36s.15-3.9-.17-5C30.64,54,30.46,53.83,30.36,54.12Z" transform="translate(-16.71 -3.54)"/><path class="d" d="M35.78,72.21c-.32,0,1,1.54,1.79,2,.54.4.39.15-.4-.71A8.86,8.86,0,0,0,35.78,72.21Z" transform="translate(-16.71 -3.54)"/><path class="f" d="M38.4,12.57c-.73-.71-2.14-.34-4.14.22a23.58,23.58,0,0,0-6.76,3.08c-3.43,2.34-5.45,3.72-5.81,6-.2,1.22.1,2.51-.66,4.52a7.79,7.79,0,0,1-.91,1.86c-.88,1.28-1.61,1.41-1.76,2.28a2,2,0,0,0,.82,2c.79.42,1.51-.4,2.61.06.57.24.53.52,1.1.76,1,.41,1.62-.17,2.44-.17,2.42,0,3.74,5,5.32,4.73a1.46,1.46,0,0,0,.87-.71c1.84-2.6,2.95-2.93,4.27-4.31a13.5,13.5,0,0,0,1.5-2c1.62-2.38,2.43-3.57,2.69-4.5.84-3-1.91-3.92-2-8.23C37.94,15.11,39.36,13.5,38.4,12.57Z" transform="translate(-16.71 -3.54)"/><path class="g" d="M31.65,3.59c-5.44,0-8.34.09-6.46.11,8.74.15,16.37.15,16.37,0S37.11,3.57,31.65,3.59Z" transform="translate(-16.71 -3.54)"/><path class="g" d="M22.25,3.63c-1.6,0-2.26,0-1.51.06a27.66,27.66,0,0,0,2.88,0C24.44,3.65,23.82,3.63,22.25,3.63Z" transform="translate(-16.71 -3.54)"/><path class="g" d="M19.37,3.63l-1.28,0-1.29,0,.05,3.56A21.65,21.65,0,0,0,17,10.53a21.63,21.63,0,0,0,.09-3.43l0-3.32,1.17-.09Z" transform="translate(-16.71 -3.54)"/><path class="g" d="M47.81,3.59c3.18,0,4.87.09,3.78.11A85.67,85.67,0,0,1,42,3.7,54.54,54.54,0,0,1,47.81,3.59Z" transform="translate(-16.71 -3.54)"/><path class="g" d="M54.4,3.64c1.59,0,2.26,0,1.5.07s-2,0-2.87,0S52.83,3.64,54.4,3.64Z" transform="translate(-16.71 -3.54)"/><path class="g" d="M80.56,3.64l1.29,0,1.28,0,0,3.56A21,21,0,0,1,83,10.55a22.34,22.34,0,0,1-.08-3.43l0-3.32-1.17-.09Z" transform="translate(-16.71 -3.54)"/><path class="g" d="M76.38,3.6c5.14,0,7.88.08,6.11.11-8.26.15-15.48.15-15.48,0S71.22,3.57,76.38,3.6Z" transform="translate(-16.71 -3.54)"/><path class="g" d="M60.77,3.6c-3.19,0-4.88.09-3.78.11a85.73,85.73,0,0,0,9.58,0A54.67,54.67,0,0,0,60.77,3.6Z" transform="translate(-16.71 -3.54)"/><path class="g" d="M68.37,96.43c5.45,0,8.35-.08,6.46-.11-8.73-.15-16.37-.15-16.37,0S62.91,96.46,68.37,96.43Z" transform="translate(-16.71 -3.54)"/><path class="g" d="M77.78,96.39c1.59,0,2.25,0,1.5-.06a27.47,27.47,0,0,0-2.87,0C75.59,96.37,76.21,96.39,77.78,96.39Z" transform="translate(-16.71 -3.54)"/><path class="g" d="M80.65,96.39l1.29,0,1.28,0,0-3.56A20.94,20.94,0,0,0,83,89.49,21.63,21.63,0,0,0,83,92.92l0,3.32-1.17.09Z" transform="translate(-16.71 -3.54)"/><path class="g" d="M52.22,96.43c-3.19,0-4.88-.08-3.78-.11a85.73,85.73,0,0,1,9.58,0A51.65,51.65,0,0,1,52.22,96.43Z" transform="translate(-16.71 -3.54)"/><path class="g" d="M45.62,96.38c-1.59,0-2.25,0-1.5-.06a27.66,27.66,0,0,1,2.88,0C47.81,96.36,47.2,96.38,45.62,96.38Z" transform="translate(-16.71 -3.54)"/><path class="g" d="M19.46,96.38l-1.28,0-1.29,0,.05-3.56a21.65,21.65,0,0,1,.13-3.43,21.47,21.47,0,0,1,.09,3.43l-.05,3.31,1.18.09Z" transform="translate(-16.71 -3.54)"/><path class="g" d="M23.64,96.43c-5.14,0-7.88-.09-6.1-.11,8.26-.16,15.47-.16,15.47,0S28.81,96.45,23.64,96.43Z" transform="translate(-16.71 -3.54)"/><path class="g" d="M39.26,96.42c3.18,0,4.87-.08,3.77-.11a85.52,85.52,0,0,0-9.57,0A51.53,51.53,0,0,0,39.26,96.42Z" transform="translate(-16.71 -3.54)"/><path class="g" d="M83,77.47c0,5.44.09,8.34.12,6.46.15-8.74.15-16.38,0-16.38S82.94,72,83,77.47Z" transform="translate(-16.71 -3.54)"/><path class="g" d="M83,86.87c0,1.59,0,2.26.07,1.5a27.47,27.47,0,0,0,0-2.87C83,84.68,83,85.3,83,86.87Z" transform="translate(-16.71 -3.54)"/><path class="g" d="M83,61.31c0-3.18.08-4.88.11-3.78a85.73,85.73,0,0,1,0,9.58A51.65,51.65,0,0,1,83,61.31Z" transform="translate(-16.71 -3.54)"/><path class="g" d="M83,54.72c0-1.6,0-2.26.06-1.51a27.66,27.66,0,0,1,0,2.88C83,56.91,83,56.29,83,54.72Z" transform="translate(-16.71 -3.54)"/><path class="g" d="M83,30.88c0-5.14.08-7.88.11-6.1.15,8.25.15,15.47,0,15.47S83,36.05,83,30.88Z" transform="translate(-16.71 -3.54)"/><path class="g" d="M83,48.35c0,3.18.09,4.88.12,3.78a85.67,85.67,0,0,0,0-9.58A52.85,52.85,0,0,0,83,48.35Z" transform="translate(-16.71 -3.54)"/><path class="g" d="M82.88,18c0,3.76.09,5.76.11,4.46a111.79,111.79,0,0,0,0-11.3C82.91,11.19,82.86,14.26,82.88,18Z" transform="translate(-16.71 -3.54)"/><path class="g" d="M17,21.88c0-5.44-.09-8.34-.11-6.46-.15,8.74-.15,16.37,0,16.37S17,27.34,17,21.88Z" transform="translate(-16.71 -3.54)"/><path class="g" d="M17,12.48c0-1.6,0-2.26-.06-1.51a27.66,27.66,0,0,0,0,2.88C17,14.67,17,14.05,17,12.48Z" transform="translate(-16.71 -3.54)"/><path class="g" d="M17,38c0,3.18-.09,4.87-.11,3.77a85.52,85.52,0,0,1,0-9.57A54.54,54.54,0,0,1,17,38Z" transform="translate(-16.71 -3.54)"/><path class="g" d="M17,44.63c0,1.59,0,2.26-.07,1.5s0-2.05,0-2.87S17,43.06,17,44.63Z" transform="translate(-16.71 -3.54)"/><path class="g" d="M16.94,68.46c0,5.15-.09,7.89-.11,6.11-.15-8.26-.15-15.47,0-15.47S17,63.3,16.94,68.46Z" transform="translate(-16.71 -3.54)"/><path class="g" d="M17,51c0-3.19-.09-4.88-.11-3.78a85.52,85.52,0,0,0,0,9.57A54.41,54.41,0,0,0,17,51Z" transform="translate(-16.71 -3.54)"/><path class="g" d="M17.09,81.31c0-3.75-.09-5.76-.11-4.46-.15,6-.15,11.31,0,11.31S17.12,85.09,17.09,81.31Z" transform="translate(-16.71 -3.54)"/></svg>