<svg xmlns="http://www.w3.org/2000/svg" viewBox="0 0 66.55 92.94"><defs><style>.a{fill:#ee7354;}.b{fill:#a66333;}.c{fill:#93d2e0;}.d{fill:#030405;}.e{fill:#010101;}.f{fill:#674998;}.g{fill:#f8ab1c;}.h{fill:none;}</style></defs><path class="a" d="M58.36,45.42a.74.74,0,0,0-.45.61c0,.3.26.49,1.23,1.17,1.41,1,1.75,1.15,2.11,1,.19-.06.46-.22.49-.45s-.45-.57-1.6-1.38S58.74,45.29,58.36,45.42Z" transform="translate(-16.71 -3.54)"/><path class="b" d="M63,35.28a11.45,11.45,0,0,1-.9,2.29l-.86,1.86,1-.5a27.58,27.58,0,0,1,6.87-1.65,31.29,31.29,0,0,0,3.58-.79l1.22-.39-1.76-.82C69.61,34.13,63,34.13,63,35.28Z" transform="translate(-16.71 -3.54)"/><path class="b" d="M62.1,35.13c-.33,0-1,1-1.58,2.36-1.25,2.76-1.25,2.69-.54,2.4.54-.18,1.62-2,2.33-3.86C62.6,35.31,62.53,35.13,62.1,35.13Z" transform="translate(-16.71 -3.54)"/><path class="c" d="M62,46.68c-1.16-.27-1.91-1.55-1.64-2.26.44-1.21,4-1.31,4.46-.31.21.43-.15,1-.34,1.32C64.42,45.53,63.45,47,62,46.68Z" transform="translate(-16.71 -3.54)"/><path class="d" d="M62.24,45.39a1.08,1.08,0,0,1-.83-1.17,1.14,1.14,0,0,1,1.6-.73,1,1,0,0,1,.48,1.25A1.07,1.07,0,0,1,62.24,45.39Z" transform="translate(-16.71 -3.54)"/><path class="e" d="M60.05,44.79c-.15.74,1.05,1.94,2.38,2a2.67,2.67,0,0,0,1.78-.64A3,3,0,0,0,65,44.8c.16-.49.24-.73.16-.9C64.73,43,60.32,43.5,60.05,44.79Zm4.41-.71c.35.59-.43,2.4-1.92,2.46-1.2.05-2.21-1.07-2.07-1.72C60.69,43.8,64,43.25,64.46,44.08Z" transform="translate(-16.71 -3.54)"/><path class="e" d="M58.53,45.52a.71.71,0,0,1-.27-.56c0-.43.41-.73.61-.88a8,8,0,0,1,5.84-.89,12.73,12.73,0,0,1,2.14.58c.73.25,2.23.76,2.17,1.08,0,.15-.42.26-.73.22a1.1,1.1,0,0,1-.55-.23,14.34,14.34,0,0,0-2.1-.82c-.48-.17-3.26-1.05-5.29.35a4.05,4.05,0,0,0-1.2,1.28A.75.75,0,0,1,58.53,45.52Z" transform="translate(-16.71 -3.54)"/><path class="f" d="M55.85,56.22s.28.17.42.09.13-.27.13-.32c0-.56.21-2.78.63-7.22,0-.31.06-.6.09-.86,0,0,.12-.89.28-1.7A26.09,26.09,0,0,1,60.11,40a.77.77,0,0,0,.16-.42c0-.2-.08-.46-.19-.5-.36-.14-1.54,1.75-2.34,3.55a17.9,17.9,0,0,0-1.41,4.88c-.09.7,0,.66-.14,1.81C55.9,52.75,55.22,55.81,55.85,56.22Z" transform="translate(-16.71 -3.54)"/><path class="f" d="M71.59,38.21c.15.43.29.47.51.11a1,1,0,0,0,.1-.75C71.88,37.07,71.38,37.64,71.59,38.21Z" transform="translate(-16.71 -3.54)"/><path class="g" d="M77,21.85c-2.13-3.61-3.19-5.41-4.67-6.81a24.36,24.36,0,0,0-7.1-4.48A30.32,30.32,0,0,0,60.93,9c-5.07-1.42-13.54-2.31-15,.76a2.65,2.65,0,0,0-.11,1.84c-.36-.06-3.59-.6-5.6,1.53a6.13,6.13,0,0,0-1.45,4.13c-.17,3.75,2.23,6.5,3.1,7.49,1,1.14,4,4.57,7.95,4.13a6.77,6.77,0,0,0,2.85-1c.25.1.63.26,1.08.48.81.39,1.08.61,1.51.77a10.22,10.22,0,0,0,2.12.46C59,29.75,60.94,29,61.33,28c.14-.42.42-.32,1.44.46s2,1.38,3,2.14c2.36,1.85,5.88,3.9,7.25,3.52a1.09,1.09,0,0,1,.86,0c.15.12.22.37.27.81a1.78,1.78,0,0,1,0,.56,2.54,2.54,0,0,1,0,1.37,2.06,2.06,0,0,0,.84,1.38c.82.48,1.87-.08,2.54-.44a6.46,6.46,0,0,0,3-3.59,6.67,6.67,0,0,0,.16-3.15A25.32,25.32,0,0,0,77,21.85Z" transform="translate(-16.71 -3.54)"/><path class="b" d="M60.58,35.09c-.43,0-2.45,4.85-2.39,5.61s2.56-4.36,2.61-5.23C60.86,35.25,60.75,35.09,60.58,35.09Z" transform="translate(-16.71 -3.54)"/><path class="h" d="M31.65,3.59c-5.44,0-8.34.09-6.46.11,8.74.15,16.37.15,16.37,0S37.11,3.57,31.65,3.59Z" transform="translate(-16.71 -3.54)"/><path class="h" d="M22.25,3.63c-1.6,0-2.26,0-1.51.06a27.66,27.66,0,0,0,2.88,0C24.44,3.65,23.82,3.63,22.25,3.63Z" transform="translate(-16.71 -3.54)"/><path class="h" d="M19.37,3.63l-1.28,0-1.29,0,.05,3.56A21.65,21.65,0,0,0,17,10.53a21.63,21.63,0,0,0,.09-3.43l0-3.32,1.17-.09Z" transform="translate(-16.71 -3.54)"/><path class="h" d="M47.81,3.59c3.18,0,4.87.09,3.78.11A85.67,85.67,0,0,1,42,3.7,54.54,54.54,0,0,1,47.81,3.59Z" transform="translate(-16.71 -3.54)"/><path class="h" d="M54.4,3.64c1.59,0,2.26,0,1.5.07s-2,0-2.87,0S52.83,3.64,54.4,3.64Z" transform="translate(-16.71 -3.54)"/><path class="h" d="M80.56,3.64l1.29,0,1.28,0,0,3.56A21,21,0,0,1,83,10.55a22.34,22.34,0,0,1-.08-3.43l0-3.32-1.17-.09Z" transform="translate(-16.71 -3.54)"/><path class="h" d="M76.38,3.6c5.14,0,7.88.08,6.11.11-8.26.15-15.48.15-15.48,0S71.22,3.57,76.38,3.6Z" transform="translate(-16.71 -3.54)"/><path class="h" d="M60.77,3.6c-3.19,0-4.88.09-3.78.11a85.73,85.73,0,0,0,9.58,0A54.67,54.67,0,0,0,60.77,3.6Z" transform="translate(-16.71 -3.54)"/><path class="h" d="M68.37,96.43c5.45,0,8.35-.08,6.46-.11-8.73-.15-16.37-.15-16.37,0S62.91,96.46,68.37,96.43Z" transform="translate(-16.71 -3.54)"/><path class="h" d="M77.78,96.39c1.59,0,2.25,0,1.5-.06a27.47,27.47,0,0,0-2.87,0C75.59,96.37,76.21,96.39,77.78,96.39Z" transform="translate(-16.71 -3.54)"/><path class="h" d="M80.65,96.39l1.29,0,1.28,0,0-3.56A20.94,20.94,0,0,0,83,89.49,21.63,21.63,0,0,0,83,92.92l0,3.32-1.17.09Z" transform="translate(-16.71 -3.54)"/><path class="h" d="M52.22,96.43c-3.19,0-4.88-.08-3.78-.11a85.73,85.73,0,0,1,9.58,0A51.65,51.65,0,0,1,52.22,96.43Z" transform="translate(-16.71 -3.54)"/><path class="h" d="M45.62,96.38c-1.59,0-2.25,0-1.5-.06a27.66,27.66,0,0,1,2.88,0C47.81,96.36,47.2,96.38,45.62,96.38Z" transform="translate(-16.71 -3.54)"/><path class="h" d="M19.46,96.38l-1.28,0-1.29,0,.05-3.56a21.65,21.65,0,0,1,.13-3.43,21.47,21.47,0,0,1,.09,3.43l-.05,3.31,1.18.09Z" transform="translate(-16.71 -3.54)"/><path class="h" d="M23.64,96.43c-5.14,0-7.88-.09-6.1-.11,8.26-.16,15.47-.16,15.47,0S28.81,96.45,23.64,96.43Z" transform="translate(-16.71 -3.54)"/><path class="h" d="M39.26,96.42c3.18,0,4.87-.08,3.77-.11a85.52,85.52,0,0,0-9.57,0A51.53,51.53,0,0,0,39.26,96.42Z" transform="translate(-16.71 -3.54)"/><path class="h" d="M83,77.47c0,5.44.09,8.34.12,6.46.15-8.74.15-16.38,0-16.38S82.94,72,83,77.47Z" transform="translate(-16.71 -3.54)"/><path class="h" d="M83,86.87c0,1.59,0,2.26.07,1.5a27.47,27.47,0,0,0,0-2.87C83,84.68,83,85.3,83,86.87Z" transform="translate(-16.71 -3.54)"/><path class="h" d="M83,61.31c0-3.18.08-4.88.11-3.78a85.73,85.73,0,0,1,0,9.58A51.65,51.65,0,0,1,83,61.31Z" transform="translate(-16.71 -3.54)"/><path class="h" d="M83,54.72c0-1.6,0-2.26.06-1.51a27.66,27.66,0,0,1,0,2.88C83,56.91,83,56.29,83,54.72Z" transform="translate(-16.71 -3.54)"/><path class="h" d="M83,30.88c0-5.14.08-7.88.11-6.1.15,8.25.15,15.47,0,15.47S83,36.05,83,30.88Z" transform="translate(-16.71 -3.54)"/><path class="h" d="M83,48.35c0,3.18.09,4.88.12,3.78a85.67,85.67,0,0,0,0-9.58A52.85,52.85,0,0,0,83,48.35Z" transform="translate(-16.71 -3.54)"/><path class="h" d="M82.88,18c0,3.76.09,5.76.11,4.46a111.79,111.79,0,0,0,0-11.3C82.91,11.19,82.86,14.26,82.88,18Z" transform="translate(-16.71 -3.54)"/><path class="h" d="M17,21.88c0-5.44-.09-8.34-.11-6.46-.15,8.74-.15,16.37,0,16.37S17,27.34,17,21.88Z" transform="translate(-16.71 -3.54)"/><path class="h" d="M17,12.48c0-1.6,0-2.26-.06-1.51a27.66,27.66,0,0,0,0,2.88C17,14.67,17,14.05,17,12.48Z" transform="translate(-16.71 -3.54)"/><path class="h" d="M17,38c0,3.18-.09,4.87-.11,3.77a85.52,85.52,0,0,1,0-9.57A54.54,54.54,0,0,1,17,38Z" transform="translate(-16.71 -3.54)"/><path class="h" d="M17,44.63c0,1.59,0,2.26-.07,1.5s0-2.05,0-2.87S17,43.06,17,44.63Z" transform="translate(-16.71 -3.54)"/><path class="h" d="M16.94,68.46c0,5.15-.09,7.89-.11,6.11-.15-8.26-.15-15.47,0-15.47S17,63.3,16.94,68.46Z" transform="translate(-16.71 -3.54)"/><path class="h" d="M17,51c0-3.19-.09-4.88-.11-3.78a85.52,85.52,0,0,0,0,9.57A54.41,54.41,0,0,0,17,51Z" transform="translate(-16.71 -3.54)"/><path class="h" d="M17.09,81.31c0-3.75-.09-5.76-.11-4.46-.15,6-.15,11.31,0,11.31S17.12,85.09,17.09,81.31Z" transform="translate(-16.71 -3.54)"/></svg>