<svg xmlns="http://www.w3.org/2000/svg" viewBox="0 0 66.55 92.94"><defs><style>.a{fill:#90d1da;}.b{fill:#030405;}.c{fill:#010101;}.d{fill:#e7421d;}.e{fill:#ee7354;}.f{fill:#a66333;}.g{fill:#121315;}.h{fill:none;}</style></defs><path class="a" d="M42.05,46.75a2.75,2.75,0,0,1-2.06-2c-.08-.35-.14-.6,0-.83.62-1,4.66-.4,5,1a.9.9,0,0,1,0,.44C44.79,46.29,43.32,47,42.05,46.75Z" transform="translate(-16.71 -3.54)"/><path class="b" d="M42.4,45.33a1.1,1.1,0,0,1-1-1.08,1,1,0,0,1,.93-.76c.66-.06,1.37.53,1.29,1.09A1.1,1.1,0,0,1,42.4,45.33Z" transform="translate(-16.71 -3.54)"/><path class="c" d="M39.51,43.81c-.09.19,0,.47.18,1a3.39,3.39,0,0,0,.89,1.54,3,3,0,0,0,2,.72c1.5-.07,2.86-1.43,2.69-2.27C45,43.36,40,42.8,39.51,43.81Zm5.3,1c.15.72-1,2-2.35,1.94-1.68-.07-2.56-2.11-2.17-2.78C40.84,43.08,44.55,43.7,44.81,44.86Z" transform="translate(-16.71 -3.54)"/><path class="d" d="M47.56,69.2s-.13-.14.78-.84A6.24,6.24,0,0,1,50,67.28a4.72,4.72,0,0,1,1.32-.35,4.5,4.5,0,0,1,1.45.07c.77.17.86.48,1.29.46s.36-.24,1-.44a3.24,3.24,0,0,1,.89-.15,3.58,3.58,0,0,1,1.43.33,9.35,9.35,0,0,1,2.61,1.4l.24.25c.47.47.63.58.54.67s-.25.12-.63.13a9,9,0,0,1-2.93-.47,3.54,3.54,0,0,0-1.36-.34c-.42,0-.4.19-.93.3a6.72,6.72,0,0,1-2.16-.1c-.55-.07-.45-.08-.71-.11a11.73,11.73,0,0,0-2.59.23A4.73,4.73,0,0,1,47.56,69.2Z" transform="translate(-16.71 -3.54)"/><path class="e" d="M45.86,69.18c-.26.45.37,1.1.72,1.46a4.55,4.55,0,0,0,1.36.92,7.09,7.09,0,0,0,1.78.55,16.48,16.48,0,0,0,3.55.16A20.84,20.84,0,0,0,57.49,72,5.37,5.37,0,0,0,60,70.87c.37-.33.79-.71.77-1.18,0-1.06-2.38-2.23-4.19-1.92-1.55.26-1.71,1.43-3.2,1.51-1,.06-1.2-.68-2.73-.84a12.2,12.2,0,0,0-2.33.17C46.14,68.86,45.94,69,45.86,69.18Z" transform="translate(-16.71 -3.54)"/><path class="f" d="M34.39,34.74l-1.21,1,2.11.43c1.18.21,3,.64,3.93.93s3,.75,4.48,1,3,.64,3.4.79.25-.22-.72-1.33c-.78-.86-1.68-1.93-2-2.32-.42-.61-1.1-.83-3.57-1.11C36,33.59,35.75,33.63,34.39,34.74Z" transform="translate(-16.71 -3.54)"/><path class="f" d="M44.49,34.45A23.86,23.86,0,0,0,47.35,38a7.8,7.8,0,0,0,2,1.83c.21,0-.32-1.08-1.15-2.44-1.18-1.82-1.82-2.47-2.61-2.61C45.06,34.6,44.56,34.49,44.49,34.45Z" transform="translate(-16.71 -3.54)"/><path class="f" d="M48.28,36.64c.57.85,1.32,2.07,1.65,2.72s.71,1.11.82,1c.36-.36-1.4-4.15-2.18-4.69C47.31,34.77,47.21,35.06,48.28,36.64Z" transform="translate(-16.71 -3.54)"/><path class="f" d="M50.68,38.57c.5,1.14.89,1.79.89,1.43a7.81,7.81,0,0,0-.75-2.25C49.75,35.49,49.64,36,50.68,38.57Z" transform="translate(-16.71 -3.54)"/><path class="c" d="M55.83,67.93a.73.73,0,0,0-.58.32c-.36.58-1.61.68-2.54.18C52,68,51.39,68,50,68.32a11.51,11.51,0,0,1-3.33.18c-.86-.14-1.65-.1-1.76.07-.32.54,3,.76,5.09.36,1.39-.28,2-.28,2.32,0,.65.64,2.58.46,3.29-.32C55.93,68.25,56,67.93,55.83,67.93Z" transform="translate(-16.71 -3.54)"/><path class="d" d="M57.24,60.51A2.11,2.11,0,0,0,59,59.9a2,2,0,0,0,.23-2.22,2.12,2.12,0,0,0-2.07-1.11,3.48,3.48,0,0,0-3-3,3.53,3.53,0,0,0-3.69,3.14A3,3,0,0,0,48,57.87a1.7,1.7,0,0,0-.26.82,2.16,2.16,0,0,0,1.71,2,2.25,2.25,0,0,0,1.74-.41,7.25,7.25,0,0,0,2,.84,4.81,4.81,0,0,0,2.75.08A4.14,4.14,0,0,0,57.24,60.51Z" transform="translate(-16.71 -3.54)"/><path class="c" d="M51.2,59.68c-.7,0-1.76.76-1.58,1.13.15.22.48.22.88,0A1.3,1.3,0,0,1,52,61c1.14.81,1.54.26.44-.62A3.64,3.64,0,0,0,51.2,59.68Z" transform="translate(-16.71 -3.54)"/><path class="e" d="M45.66,46.66c.56-.75.15-1.71.63-1.87.1,0,.25,0,1.08.54a5.55,5.55,0,0,1,1.35,1.08,2.31,2.31,0,0,1-.06,2.39,2.45,2.45,0,0,1-.86.71c-1.66,1-4.33,2-4.89,1.22a.72.72,0,0,1-.1-.55,2.12,2.12,0,0,1-1.16.18.86.86,0,0,1-.58-.21c-.18-.18-.19-.41-.21-.8a1.26,1.26,0,0,1,.15-1,.87.87,0,0,1,.55-.27C43.33,47.81,45,47.51,45.66,46.66Z" transform="translate(-16.71 -3.54)"/><path class="g" d="M37.09,45.55c-.12,0-.22-.07-.36-.16a.93.93,0,0,1-.51-.84.89.89,0,0,1,.33-.61,2.39,2.39,0,0,1,.62-.36A8.13,8.13,0,0,1,40,42.92a14.86,14.86,0,0,1,3.32.29,8.29,8.29,0,0,1,2.14.59c1.12.52,2,1.51,3.2,1.86a2.42,2.42,0,0,1-1.57.09,11.31,11.31,0,0,1-1.61-1.07l-.26-.17a9,9,0,0,0-6.1-.46c-1.23.27-1.45.7-1.52.82S37.34,45.51,37.09,45.55Z" transform="translate(-16.71 -3.54)"/><path class="c" d="M52,45c-.19.07-.08.85,0,1.65.46,3.17.5,2.94.53,3.53.09,1.64-.23,3,.09,3.06.07,0,.15,0,.18-.06.64-.47-.1-5.49-.5-7.91C52.19,45.08,52,44.92,52,45Z" transform="translate(-16.71 -3.54)"/><path class="c" d="M46,47.25a3.86,3.86,0,0,1-1.86.36c-.93-.11-1.29.32-.65.72.32.21,3.62-.79,4.12-1.26S47,46.68,46,47.25Z" transform="translate(-16.71 -3.54)"/><path class="c" d="M49.68,69.87c-.14.18.11.25.5.14s.72-.25.72-.32C50.9,69.4,49.86,69.55,49.68,69.87Z" transform="translate(-16.71 -3.54)"/><path class="c" d="M51.47,70.44c.14.29.36.43.54.32a.39.39,0,0,0,.14-.53C51.79,69.69,51.26,69.87,51.47,70.44Z" transform="translate(-16.71 -3.54)"/><path class="h" d="M31.65,3.59c-5.44,0-8.34.09-6.46.11,8.74.15,16.37.15,16.37,0S37.11,3.57,31.65,3.59Z" transform="translate(-16.71 -3.54)"/><path class="h" d="M22.25,3.63c-1.6,0-2.26,0-1.51.06a27.66,27.66,0,0,0,2.88,0C24.44,3.65,23.82,3.63,22.25,3.63Z" transform="translate(-16.71 -3.54)"/><path class="h" d="M19.37,3.63l-1.28,0-1.29,0,.05,3.56A21.65,21.65,0,0,0,17,10.53a21.63,21.63,0,0,0,.09-3.43l0-3.32,1.17-.09Z" transform="translate(-16.71 -3.54)"/><path class="h" d="M47.81,3.59c3.18,0,4.87.09,3.78.11A85.67,85.67,0,0,1,42,3.7,54.54,54.54,0,0,1,47.81,3.59Z" transform="translate(-16.71 -3.54)"/><path class="h" d="M54.4,3.64c1.59,0,2.26,0,1.5.07s-2,0-2.87,0S52.83,3.64,54.4,3.64Z" transform="translate(-16.71 -3.54)"/><path class="h" d="M80.56,3.64l1.29,0,1.28,0,0,3.56A21,21,0,0,1,83,10.55a22.34,22.34,0,0,1-.08-3.43l0-3.32-1.17-.09Z" transform="translate(-16.71 -3.54)"/><path class="h" d="M76.38,3.6c5.14,0,7.88.08,6.11.11-8.26.15-15.48.15-15.48,0S71.22,3.57,76.38,3.6Z" transform="translate(-16.71 -3.54)"/><path class="h" d="M60.77,3.6c-3.19,0-4.88.09-3.78.11a85.73,85.73,0,0,0,9.58,0A54.67,54.67,0,0,0,60.77,3.6Z" transform="translate(-16.71 -3.54)"/><path class="h" d="M68.37,96.43c5.45,0,8.35-.08,6.46-.11-8.73-.15-16.37-.15-16.37,0S62.91,96.46,68.37,96.43Z" transform="translate(-16.71 -3.54)"/><path class="h" d="M77.78,96.39c1.59,0,2.25,0,1.5-.06a27.47,27.47,0,0,0-2.87,0C75.59,96.37,76.21,96.39,77.78,96.39Z" transform="translate(-16.71 -3.54)"/><path class="h" d="M80.65,96.39l1.29,0,1.28,0,0-3.56A20.94,20.94,0,0,0,83,89.49,21.63,21.63,0,0,0,83,92.92l0,3.32-1.17.09Z" transform="translate(-16.71 -3.54)"/><path class="h" d="M52.22,96.43c-3.19,0-4.88-.08-3.78-.11a85.73,85.73,0,0,1,9.58,0A51.65,51.65,0,0,1,52.22,96.43Z" transform="translate(-16.71 -3.54)"/><path class="h" d="M45.62,96.38c-1.59,0-2.25,0-1.5-.06a27.66,27.66,0,0,1,2.88,0C47.81,96.36,47.2,96.38,45.62,96.38Z" transform="translate(-16.71 -3.54)"/><path class="h" d="M19.46,96.38l-1.28,0-1.29,0,.05-3.56a21.65,21.65,0,0,1,.13-3.43,21.47,21.47,0,0,1,.09,3.43l-.05,3.31,1.18.09Z" transform="translate(-16.71 -3.54)"/><path class="h" d="M23.64,96.43c-5.14,0-7.88-.09-6.1-.11,8.26-.16,15.47-.16,15.47,0S28.81,96.45,23.64,96.43Z" transform="translate(-16.71 -3.54)"/><path class="h" d="M39.26,96.42c3.18,0,4.87-.08,3.77-.11a85.52,85.52,0,0,0-9.57,0A51.53,51.53,0,0,0,39.26,96.42Z" transform="translate(-16.71 -3.54)"/><path class="h" d="M83,77.47c0,5.44.09,8.34.12,6.46.15-8.74.15-16.38,0-16.38S82.94,72,83,77.47Z" transform="translate(-16.71 -3.54)"/><path class="h" d="M83,86.87c0,1.59,0,2.26.07,1.5a27.47,27.47,0,0,0,0-2.87C83,84.68,83,85.3,83,86.87Z" transform="translate(-16.71 -3.54)"/><path class="h" d="M83,61.31c0-3.18.08-4.88.11-3.78a85.73,85.73,0,0,1,0,9.58A51.65,51.65,0,0,1,83,61.31Z" transform="translate(-16.71 -3.54)"/><path class="h" d="M83,54.72c0-1.6,0-2.26.06-1.51a27.66,27.66,0,0,1,0,2.88C83,56.91,83,56.29,83,54.72Z" transform="translate(-16.71 -3.54)"/><path class="h" d="M83,30.88c0-5.14.08-7.88.11-6.1.15,8.25.15,15.47,0,15.47S83,36.05,83,30.88Z" transform="translate(-16.71 -3.54)"/><path class="h" d="M83,48.35c0,3.18.09,4.88.12,3.78a85.67,85.67,0,0,0,0-9.58A52.85,52.85,0,0,0,83,48.35Z" transform="translate(-16.71 -3.54)"/><path class="h" d="M82.88,18c0,3.76.09,5.76.11,4.46a111.79,111.79,0,0,0,0-11.3C82.91,11.19,82.86,14.26,82.88,18Z" transform="translate(-16.71 -3.54)"/><path class="h" d="M17,21.88c0-5.44-.09-8.34-.11-6.46-.15,8.74-.15,16.37,0,16.37S17,27.34,17,21.88Z" transform="translate(-16.71 -3.54)"/><path class="h" d="M17,12.48c0-1.6,0-2.26-.06-1.51a27.66,27.66,0,0,0,0,2.88C17,14.67,17,14.05,17,12.48Z" transform="translate(-16.71 -3.54)"/><path class="h" d="M17,38c0,3.18-.09,4.87-.11,3.77a85.52,85.52,0,0,1,0-9.57A54.54,54.54,0,0,1,17,38Z" transform="translate(-16.71 -3.54)"/><path class="h" d="M17,44.63c0,1.59,0,2.26-.07,1.5s0-2.05,0-2.87S17,43.06,17,44.63Z" transform="translate(-16.71 -3.54)"/><path class="h" d="M16.94,68.46c0,5.15-.09,7.89-.11,6.11-.15-8.26-.15-15.47,0-15.47S17,63.3,16.94,68.46Z" transform="translate(-16.71 -3.54)"/><path class="h" d="M17,51c0-3.19-.09-4.88-.11-3.78a85.52,85.52,0,0,0,0,9.57A54.41,54.41,0,0,0,17,51Z" transform="translate(-16.71 -3.54)"/><path class="h" d="M17.09,81.31c0-3.75-.09-5.76-.11-4.46-.15,6-.15,11.31,0,11.31S17.12,85.09,17.09,81.31Z" transform="translate(-16.71 -3.54)"/></svg>